<?xml version="1.0" encoding="utf-8"?>
<!-- Generator: Adobe Illustrator 15.0.0, SVG Export Plug-In . SVG Version: 6.00 Build 0)  -->
<!DOCTYPE svg PUBLIC "-//W3C//DTD SVG 1.1//EN" "http://www.w3.org/Graphics/SVG/1.1/DTD/svg11.dtd">
<svg version="1.1" id="Calque_1" xmlns="http://www.w3.org/2000/svg" xmlns:xlink="http://www.w3.org/1999/xlink" x="0px" y="0px"
	 width="125px" height="32px" viewBox="0 0 125 32" enable-background="new 0 0 125 32" xml:space="preserve">
<g>
	<polygon fill="#FFFFFF" points="42.617,26.666 42.617,5.333 45.461,5.333 45.461,26.666 	"/>
</g>
<g>
	<polygon fill="#FFFFFF" points="49.728,26.666 49.728,8.89 52.571,8.89 52.571,26.666 	"/>
</g>
<g>
	<polygon fill="#FFFFFF" points="56.838,26.666 56.838,5.333 59.682,5.333 59.682,26.666 	"/>
</g>
<g>
	<polygon fill="#FFFFFF" points="63.948,26.666 63.948,5.333 66.793,5.333 66.793,26.666 	"/>
</g>
<g>
	<polygon fill="#FFFFFF" points="84.711,8.89 84.711,12.09 87.912,12.09 87.912,26.666 91.109,26.666 91.109,8.89 	"/>
</g>
<path fill="#FFFFFF" d="M81.014,13.866c0-2.743-2.231-4.976-4.977-4.976s-4.979,2.233-4.979,4.976v7.823
	c0,2.744,2.234,4.978,4.979,4.978c2.745,0,4.977-2.231,4.977-4.978H78.17c0,1.177-0.958,2.133-2.133,2.133
	c-1.178,0-2.133-0.956-2.133-2.133v-0.354c0-1.178,0.955-2.135,2.133-2.135c2.745,0,4.977-2.232,4.977-4.977V13.866L81.014,13.866z
	 M78.17,14.222c0,1.177-0.958,2.133-2.133,2.133c-0.766,0-1.486,0.178-2.133,0.487v-2.976c0-1.176,0.955-2.132,2.133-2.132
	c1.175,0,2.133,0.957,2.133,2.132V14.222L78.17,14.222z"/>
<g>
	<path fill="#FFFFFF" d="M115.68,12.444l-2.688,6.197l-2.686-6.197h-3.871l2.31,5.333h-3.199h-0.001
		c-0.002,0.98-0.796,1.775-1.777,1.777l0,0c-0.979-0.002-1.775-0.798-1.777-1.777h0.002v-5.333h4.445V8.89h-4.445V5.333h-3.555
		v12.444c0,2.947,2.385,5.33,5.33,5.33c2.717,0,4.935-2.037,5.268-4.664l2.021,4.668h3.875l4.623-10.667H115.68z M95.593,23.111
		c-0.983,0-1.778,0.795-1.778,1.775c0,0.983,0.795,1.778,1.778,1.778c0.98,0,1.774-0.795,1.774-1.778
		C97.367,23.906,96.573,23.111,95.593,23.111z"/>
</g>
<path fill="#FFFFFF" d="M21.283,0c-8.835,0-16,7.163-16,16c0,8.836,7.165,16,16,16c8.837,0,15.999-7.164,15.999-16
	C37.282,7.163,30.12,0,21.283,0z M21.283,24c-4.417,0-8-3.582-8-8s3.583-8,8-8c4.419,0,8,3.582,8,8S25.702,24,21.283,24z"/>
</svg>
