<?xml version="1.0" encoding="utf-8"?>
<!-- Generator: Adobe Illustrator 16.0.0, SVG Export Plug-In . SVG Version: 6.00 Build 0)  -->
<!DOCTYPE svg PUBLIC "-//W3C//DTD SVG 1.0//EN" "http://www.w3.org/TR/2001/REC-SVG-20010904/DTD/svg10.dtd">
<svg version="1.0" id="TEXTES" xmlns="http://www.w3.org/2000/svg" xmlns:xlink="http://www.w3.org/1999/xlink" x="0px" y="0px"
	 width="1119.204px" height="401.429px" viewBox="0 0 1119.204 401.429" enable-background="new 0 0 1119.204 401.429"
	 xml:space="preserve">
<g>
	<path fill="#FFFFFF" d="M372.064,270.453c0-2.746-1.599-4.464-5.525-5.928c-3.658-1.33-3.932-2.156-3.932-3.317
		c0-1.333,1.224-2.301,2.91-2.301c1.447,0,2.777,0.543,4.066,1.658l0.468,0.404l1.911-2.462l-0.417-0.364
		c-1.752-1.526-3.642-2.236-5.948-2.236c-3.521,0-6.176,2.358-6.176,5.54c0,3.201,2.193,4.661,5.741,5.982
		c3.442,1.22,3.715,2.114,3.715,3.183c0,1.495-1.284,2.54-3.122,2.54c-1.761,0-3.202-0.643-4.819-2.147l-0.456-0.425l-1.993,2.416
		l0.404,0.376c2.008,1.87,4.245,2.779,6.836,2.779C369.4,276.151,372.064,273.777,372.064,270.453z"/>
	<path fill="#FFFFFF" d="M390.007,271.223c-1.408,1.352-2.618,1.903-4.176,1.903c-3.16,0-5.453-2.974-5.453-7.07v-0.105
		c0-4.065,2.293-7.017,5.453-7.017c1.494,0,2.779,0.563,4.045,1.771l0.461,0.44l1.962-2.432l-0.402-0.372
		c-1.223-1.134-3.015-2.435-6.041-2.435c-5.052,0-8.719,4.234-8.719,10.069v0.159c0,5.804,3.611,10.016,8.586,10.016
		c2.444,0,4.385-0.836,6.292-2.711l0.392-0.386l-1.956-2.26L390.007,271.223z"/>
	<rect x="397.769" y="256.173" fill="#FFFFFF" width="3.16" height="19.714"/>
	<polygon fill="#FFFFFF" points="410.965,267.437 419.335,267.437 419.335,264.464 410.965,264.464 410.965,259.172 
		420.289,259.172 420.289,256.173 407.805,256.173 407.805,275.887 420.421,275.887 420.421,272.887 410.965,272.887 	"/>
	<polygon fill="#FFFFFF" points="437.813,269.411 429.019,256.173 426.237,256.173 426.237,275.887 429.343,275.887 
		429.343,262.302 438.376,275.887 440.946,275.887 440.946,256.173 437.813,256.173 	"/>
	<path fill="#FFFFFF" d="M459.815,271.223c-1.407,1.352-2.618,1.903-4.178,1.903c-3.159,0-5.453-2.974-5.453-7.07v-0.105
		c0-4.065,2.294-7.017,5.453-7.017c1.494,0,2.779,0.563,4.047,1.771l0.461,0.44l1.962-2.432l-0.401-0.372
		c-1.223-1.134-3.015-2.435-6.041-2.435c-5.052,0-8.719,4.234-8.719,10.069v0.159c0,5.804,3.61,10.016,8.586,10.016
		c2.445,0,4.386-0.836,6.292-2.711l0.393-0.386l-1.956-2.26L459.815,271.223z"/>
	<polygon fill="#FFFFFF" points="470.55,267.437 478.919,267.437 478.919,264.464 470.55,264.464 470.55,259.172 479.874,259.172 
		479.874,256.173 467.392,256.173 467.392,275.887 480.007,275.887 480.007,272.887 470.55,272.887 	"/>
	<path fill="#FFFFFF" d="M491.628,273.152c-1.761,0-3.202-0.643-4.819-2.148l-0.456-0.424l-1.991,2.416l0.404,0.376
		c2.008,1.87,4.244,2.779,6.835,2.779c3.67,0,6.334-2.374,6.334-5.698c0-2.747-1.599-4.464-5.524-5.928
		c-3.656-1.33-3.931-2.156-3.931-3.317c0-1.333,1.225-2.301,2.91-2.301c1.446,0,2.776,0.543,4.065,1.658l0.468,0.404l1.912-2.462
		l-0.418-0.364c-1.752-1.526-3.643-2.236-5.949-2.236c-3.52,0-6.174,2.358-6.174,5.54c0,3.201,2.192,4.661,5.739,5.982
		c3.443,1.22,3.718,2.114,3.718,3.183C494.751,272.107,493.467,273.152,491.628,273.152z"/>
	<polygon fill="#FFFFFF" points="363.111,300.035 371.482,300.035 371.482,297.063 363.111,297.063 363.111,291.771 
		372.436,291.771 372.436,288.771 359.952,288.771 359.952,308.485 372.568,308.485 372.568,305.485 363.111,305.485 	"/>
	<polygon fill="#FFFFFF" points="377.165,291.797 382.357,291.797 382.357,308.485 385.517,308.485 385.517,291.797 
		390.735,291.797 390.735,288.771 377.165,288.771 	"/>
	<polygon fill="#FFFFFF" points="405.315,291.797 410.508,291.797 410.508,308.485 413.667,308.485 413.667,291.797 
		418.886,291.797 418.886,288.771 405.315,288.771 	"/>
	<polygon fill="#FFFFFF" points="427.542,300.035 435.913,300.035 435.913,297.063 427.542,297.063 427.542,291.771 
		436.866,291.771 436.866,288.771 424.384,288.771 424.384,308.485 436.999,308.485 436.999,305.485 427.542,305.485 	"/>
	<path fill="#FFFFFF" d="M454.89,303.821c-1.407,1.351-2.617,1.902-4.178,1.902c-3.159,0-5.453-2.974-5.453-7.069v-0.105
		c0-4.065,2.294-7.017,5.453-7.017c1.494,0,2.779,0.563,4.047,1.771l0.461,0.44l1.962-2.432l-0.401-0.372
		c-1.223-1.134-3.015-2.435-6.041-2.435c-5.052,0-8.719,4.234-8.719,10.069v0.159c0,5.804,3.61,10.016,8.586,10.016
		c2.444,0,4.385-0.836,6.292-2.711l0.393-0.386l-1.956-2.26L454.89,303.821z"/>
	<polygon fill="#FFFFFF" points="473.405,297.063 465.624,297.063 465.624,288.771 462.466,288.771 462.466,308.485 
		465.624,308.485 465.624,300.088 473.405,300.088 473.405,308.485 476.565,308.485 476.565,288.771 473.405,288.771 	"/>
	<polygon fill="#FFFFFF" points="494.856,302.01 486.062,288.771 483.282,288.771 483.282,308.485 486.388,308.485 486.388,294.9 
		495.421,308.485 497.989,308.485 497.989,288.771 494.856,288.771 	"/>
	<path fill="#FFFFFF" d="M512.575,288.479c-4.976,0-8.586,4.234-8.586,10.069v0.212c0,5.804,3.6,10.016,8.561,10.016
		c4.959,0,8.559-4.234,8.559-10.068v-0.212C521.108,292.691,517.52,288.479,512.575,288.479z M512.575,305.777
		c-3.099,0-5.348-2.974-5.348-7.069v-0.186c0-4.081,2.238-7.043,5.322-7.043c3.099,0,5.348,2.974,5.348,7.069v0.186
		C517.897,302.815,515.659,305.777,512.575,305.777z"/>
	<polygon fill="#FFFFFF" points="530.267,288.771 527.108,288.771 527.108,308.485 538.876,308.485 538.876,305.485 
		530.267,305.485 	"/>
	<path fill="#FFFFFF" d="M551.239,288.479c-4.976,0-8.586,4.234-8.586,10.069v0.212c0,5.804,3.6,10.016,8.561,10.016
		c4.959,0,8.559-4.234,8.559-10.068v-0.212C559.772,292.691,556.184,288.479,551.239,288.479z M551.239,305.777
		c-3.099,0-5.348-2.974-5.348-7.069v-0.186c0-4.081,2.238-7.043,5.322-7.043c3.099,0,5.348,2.974,5.348,7.069v0.186
		C556.562,302.815,554.323,305.777,551.239,305.777z"/>
	<path fill="#FFFFFF" d="M572.819,300.406h4.635v4.335c-0.946,0.652-2.2,1.036-3.414,1.036c-3.489,0-5.744-2.786-5.744-7.097v-0.132
		c0-4.065,2.338-7.017,5.559-7.017c1.617,0,2.84,0.472,4.088,1.575l0.477,0.421l1.912-2.547l-0.436-0.356
		c-1.818-1.485-3.609-2.119-5.988-2.119c-5.128,0-8.85,4.224-8.85,10.043v0.186c0,5.991,3.577,10.016,8.902,10.016
		c3.069,0,5.301-1.442,6.358-2.303l0.216-0.176v-8.812h-7.715V300.406z"/>
	<rect x="587.065" y="288.771" fill="#FFFFFF" width="3.158" height="19.715"/>
	<polygon fill="#FFFFFF" points="600.261,300.035 608.63,300.035 608.63,297.063 600.261,297.063 600.261,291.771 609.585,291.771 
		609.585,288.771 597.103,288.771 597.103,308.485 609.718,308.485 609.718,305.485 600.261,305.485 	"/>
	<path fill="#FFFFFF" d="M622.121,297.124c-3.658-1.33-3.933-2.156-3.933-3.316c0-1.333,1.225-2.302,2.91-2.302
		c1.447,0,2.778,0.543,4.067,1.658l0.468,0.405l1.91-2.463l-0.418-0.364c-1.752-1.526-3.642-2.236-5.947-2.236
		c-3.521,0-6.176,2.358-6.176,5.54c0,3.202,2.193,4.662,5.741,5.982c3.441,1.22,3.716,2.114,3.716,3.183
		c0,1.495-1.284,2.54-3.123,2.54c-1.761,0-3.201-0.643-4.817-2.147l-0.455-0.425l-1.994,2.416l0.404,0.376
		c2.008,1.87,4.244,2.779,6.837,2.779c3.67,0,6.334-2.374,6.334-5.698C627.646,300.305,626.047,298.588,622.121,297.124z"/>
</g>
<g>
	<g>
		<path fill="#FFFFFF" d="M324.083,267.296l-7.927,2.148l-1.704-9.334l12.816-3.853h7.408v52.228h-10.593V267.296z"/>
	</g>
</g>
<path fill="#FFFFFF" d="M92.943,92.943v128.403c0,53.477,40.018,89.494,92.761,89.494c14.226,0,27.537-2.635,39.406-7.514
	l0.005,0.012l22.152-9.256l31.563,14.402V92.943H92.943z M185.764,263.315l-41.116-18.758V134.286h41.116V263.315z M239.054,244.993
	l-40.159,18.322v-21.889l40.159-18.322V244.993z"/>
<g>
	<path fill="#FFFFFF" d="M446.034,146.61c-4.08-8.052-9.438-21.937-10.551-36.371c-1.496,0-8.447,0-8.447,0
		s2.006,26.002,14.611,43.349h8.775c12.607-17.347,14.611-43.349,14.611-43.349s-6.949,0-8.447,0
		C455.474,124.674,450.118,138.559,446.034,146.61z"/>
	<path fill="#FFFFFF" d="M618.487,92.898h-8.664v17.341h-5.289v6.621h5.289v24.302c0,6.656,3.449,12.426,12.057,12.426h4.605v-7.716
		h-3.117c-3.637,0-4.881-1.781-4.881-5.238V116.86h7.998v-6.621h-7.998V92.898z"/>
	<path fill="#FFFFFF" d="M342.594,132.773c0,8.05-4.968,13.251-12.659,13.251c-7.69,0-12.66-5.201-12.66-13.251v-39.83h-8.841
		v40.256c0,5.927,2.188,11.259,6.161,15.014c3.903,3.691,9.351,5.724,15.34,5.724c4.889,0,9.417-1.354,13.039-3.86l8.461,3.86
		V92.943h-8.841V132.773z"/>
	<path fill="#FFFFFF" d="M393.593,113.909c-2.521-2.437-6.762-4.301-12.981-4.301c-4.087,0-7.859,1.556-10.231,3.231l-7.086-3.231
		v43.981h8.671v-26.25c0-6.721,3.804-9.607,8.646-9.607s8.646,2.887,8.646,9.607v26.25h8.672v-27.53
		C397.929,121.22,396.907,117.142,393.593,113.909z"/>
	<path fill="#FFFFFF" d="M523.366,127.34c0-6.721,3.801-9.607,8.645-9.607c1.697,0,3.264,0.354,4.588,1.104
		c1.48-2.4,3.117-5.057,4.6-7.46c-2.371-1.082-5.416-1.768-9.188-1.768c-4.086,0-7.859,1.556-10.232,3.231l-7.084-3.231v43.981
		h8.672V127.34z"/>
	<rect x="408.802" y="110.239" fill="#FFFFFF" width="8.663" height="43.351"/>
	<rect x="408.802" y="92.899" fill="#FFFFFF" width="8.663" height="8.668"/>
	<rect x="586.386" y="110.239" fill="#FFFFFF" width="8.664" height="43.351"/>
	<rect x="586.386" y="92.899" fill="#FFFFFF" width="8.664" height="8.668"/>
	<rect x="452.36" y="190.23" fill="#FFFFFF" width="8.664" height="43.35"/>
	<rect x="452.36" y="172.888" fill="#FFFFFF" width="8.664" height="8.671"/>
	<path fill="#FFFFFF" d="M490.157,154.219c3.701,0,6.645-0.548,9.268-1.723c2.336-1.047,4.463-2.606,6.898-5.056l-5.146-4.869
		c-1.551,1.562-3.061,2.584-4.746,3.216c-1.67,0.626-3.553,0.905-6.107,0.905c-5.34,0-9.045-2.698-10.434-7.598l-0.006-0.027
		l0.027-0.003c4.322-0.577,12.262-1.273,18.92-4.879c3.24-1.756,5.613-3.796,6.707-6.75c0.855-2.313,1.221-5.198,0.49-7.832
		c-0.986-3.564-2.646-5.644-5.236-7.37c-2.939-1.955-6.979-2.625-11.748-2.625c-2.895,0-5.52,0.503-7.801,1.496
		c-2.25,0.979-4.184,2.439-5.742,4.345c-1.557,1.9-2.75,4.253-3.549,6.99c-0.807,2.762-1.217,5.935-1.217,9.427
		c0,7.783,1.902,13.636,5.654,17.399C479.663,152.551,484.296,154.219,490.157,154.219z M479.294,128.343
		c0.041-1.267,0.105-2.301,0.27-3.231c0.16-0.903,0.41-1.715,0.842-2.716c1.264-3.029,4.584-4.914,8.66-4.914
		c2.906,0,6.736,0.533,8.486,3.065c0.389,0.562,0.982,2.059,0.461,3.715c-0.637,2.012-2.641,3.798-5.959,5.027
		c-4.439,1.643-9.486,2.449-12.732,2.791l-0.027,0.002V128.343z"/>
	<path fill="#FFFFFF" d="M380.672,214.176c3.243-1.756,5.615-3.797,6.709-6.749c0.856-2.313,1.219-5.198,0.489-7.834
		c-0.986-3.564-2.646-5.642-5.238-7.368c-2.938-1.955-6.977-2.626-11.747-2.626c-2.895,0-5.519,0.504-7.8,1.495
		c-2.251,0.979-4.184,2.441-5.742,4.346c-1.557,1.901-2.75,4.254-3.549,6.99c-0.807,2.763-1.216,5.935-1.216,9.428
		c0,7.782,1.901,13.636,5.651,17.397c3.276,3.287,7.908,4.952,13.77,4.952c3.701,0,6.646-0.546,9.268-1.72
		c2.336-1.047,4.465-2.606,6.898-5.056l-5.146-4.869c-1.551,1.562-3.061,2.583-4.746,3.216c-1.67,0.626-3.553,0.904-6.106,0.904
		c-5.34,0-9.046-2.699-10.434-7.597l-0.008-0.027l0.028-0.005C366.077,218.479,374.016,217.782,380.672,214.176z M361.164,212.069
		l-0.028,0.004v-3.74c0.043-1.267,0.104-2.3,0.27-3.231c0.159-0.902,0.411-1.714,0.842-2.715c1.266-3.032,4.584-4.914,8.66-4.914
		c2.906,0,6.737,0.531,8.488,3.065c0.387,0.562,0.98,2.059,0.459,3.715c-0.635,2.012-2.641,3.796-5.959,5.027
		C369.457,210.922,364.409,211.729,361.164,212.069z"/>
	<path fill="#FFFFFF" d="M547.747,214.176c3.242-1.756,5.613-3.797,6.709-6.749c0.855-2.313,1.219-5.198,0.488-7.834
		c-0.986-3.564-2.646-5.642-5.238-7.368c-2.936-1.955-6.977-2.626-11.746-2.626c-2.896,0-5.52,0.504-7.801,1.495
		c-2.25,0.979-4.184,2.441-5.744,4.346c-1.553,1.901-2.748,4.254-3.549,6.99c-0.805,2.763-1.213,5.935-1.213,9.428
		c0,7.782,1.9,13.636,5.65,17.397c3.275,3.287,7.908,4.952,13.77,4.952c3.699,0,6.646-0.546,9.268-1.72
		c2.336-1.047,4.465-2.606,6.896-5.056l-5.145-4.869c-1.551,1.562-3.061,2.583-4.746,3.216c-1.67,0.626-3.551,0.904-6.105,0.904
		c-5.342,0-9.049-2.699-10.436-7.597l-0.008-0.027l0.031-0.005C533.151,218.479,541.091,217.782,547.747,214.176z M528.237,212.069
		l-0.027,0.004v-3.74c0.043-1.267,0.105-2.3,0.27-3.231c0.158-0.902,0.41-1.714,0.842-2.715c1.266-3.032,4.582-4.914,8.658-4.914
		c2.908,0,6.74,0.531,8.49,3.065c0.387,0.562,0.98,2.059,0.459,3.715c-0.635,2.012-2.639,3.796-5.959,5.027
		C536.532,210.922,531.483,211.729,528.237,212.069z"/>
	<path fill="#FFFFFF" d="M658.077,145.787c-1.67,0.626-3.553,0.905-6.107,0.905c-5.342,0-9.045-2.698-10.434-7.598l-0.008-0.027
		l0.029-0.003c4.322-0.577,12.262-1.273,18.92-4.879c3.24-1.756,5.613-3.796,6.707-6.75c0.855-2.313,1.221-5.198,0.49-7.832
		c-0.988-3.564-2.646-5.644-5.238-7.37c-2.938-1.955-6.979-2.625-11.746-2.625c-2.895,0-5.521,0.503-7.801,1.496
		c-2.252,0.979-4.184,2.439-5.742,4.345c-1.557,1.9-2.75,4.253-3.549,6.99c-0.807,2.762-1.215,5.935-1.215,9.427
		c0,7.783,1.9,13.636,5.65,17.399c3.275,3.285,7.908,4.953,13.77,4.953c3.701,0,6.645-0.548,9.268-1.723
		c2.336-1.047,4.463-2.606,6.898-5.056l-5.148-4.869C661.272,144.133,659.763,145.155,658.077,145.787z M640.94,132.082v-3.739
		c0.041-1.267,0.104-2.301,0.27-3.231c0.158-0.903,0.41-1.715,0.84-2.716c1.266-3.029,4.586-4.914,8.662-4.914
		c2.906,0,6.736,0.533,8.488,3.065c0.387,0.562,0.979,2.059,0.457,3.715c-0.635,2.012-2.639,3.798-5.957,5.027
		c-4.439,1.643-9.488,2.449-12.732,2.791L640.94,132.082z"/>
	<path fill="#FFFFFF" d="M565.089,128.086l-6.795-0.602c-4.59-0.431-5.945-2.404-5.945-4.988c0-3.266,2.631-5.584,7.816-5.584
		c4.076,0,7.896,0.858,10.617,3.184l5.439-5.59c-3.99-3.522-9.516-4.897-15.975-4.897c-9.004,0-16.227,4.811-16.227,13.317
		c0,7.653,4.672,11.348,12.742,12.036l6.883,0.598c4.166,0.35,5.779,2.237,5.779,5.165c0,4.119-4.164,6.01-9.432,6.01
		c-4.25,0-8.92-0.945-12.408-4.555l-5.689,5.759c5.096,5.074,11.043,6.28,18.098,6.28c10.279,0,17.926-4.736,17.926-13.844
		C577.919,132.64,573.163,128.771,565.089,128.086z"/>
	<path fill="#FFFFFF" d="M335.709,191.427c-2.472-1.088-5.576-1.719-9.378-1.719c-12.496,0-18.266,8.071-18.266,22.006
		c0,16.396,8.576,22.093,19.373,22.093c4.012,0,7.068-1.359,9.713-3.292l7.22,3.292v-60.919h-8.662V191.427z M335.709,219.867
		c-0.013,3.1-2.913,6.46-8.103,6.46c-7.055,0-10.965-4.676-10.965-12.067v-6.027c0.088-2.634,0.255-3.909,1.104-5.865
		c1.362-3.229,4.914-4.836,8.607-4.836c5.307,0,9.339,1.709,9.355,6.209C335.722,207.771,335.724,215.836,335.709,219.867z"/>
	<path fill="#FFFFFF" d="M423.978,221.162v-48.274h-8.665v48.781c0,6.384,3.569,11.911,11.823,11.911h18.469v-7.396h-16.949
		C425.169,226.184,423.978,224.476,423.978,221.162z"/>
	<path fill="#FFFFFF" d="M482.294,220.625v-47.737h-8.664v48.266c0,6.654,3.449,12.425,12.057,12.425h4.604v-7.717h-3.115
		C483.536,225.861,482.294,224.082,482.294,220.625z"/>
	<path fill="#FFFFFF" d="M506.8,220.625v-47.737h-8.662v48.266c0,6.654,3.447,12.425,12.055,12.425h4.604v-7.717h-3.115
		C508.044,225.861,506.8,224.082,506.8,220.625z"/>
	<polygon fill="#FFFFFF" points="660.663,90.686 640.876,99.713 640.876,107.282 660.663,98.254 	"/>
</g>
<g>
	<rect x="278.83" y="109.874" fill="none" width="8.458" height="42.326"/>
	<rect x="278.83" y="92.943" fill="none" width="8.458" height="8.464"/>
	<rect x="287.288" y="109.874" fill="none" width="8.458" height="42.326"/>
	<rect x="287.288" y="92.943" fill="none" width="8.458" height="8.464"/>
	<rect x="295.746" y="109.874" fill="none" width="8.458" height="42.326"/>
	<rect x="295.746" y="92.943" fill="none" width="8.458" height="8.464"/>
	<rect x="304.204" y="109.874" fill="none" width="4.229" height="42.325"/>
	<rect x="304.204" y="92.943" fill="none" width="4.229" height="8.464"/>
</g>
<rect fill="none" width="185.887" height="185.887"/>
<rect x="933.317" y="215.542" fill="none" width="185.887" height="185.887"/>
<linearGradient id="SVGID_1_" gradientUnits="userSpaceOnUse" x1="686.8945" y1="271.71" x2="762.0088" y2="271.71">
	<stop  offset="0.2" style="stop-color:#FFFFFF"/>
	<stop  offset="0.7" style="stop-color:#FFFFFF"/>
	<stop  offset="1" style="stop-color:#FFFFFF;stop-opacity:0"/>
</linearGradient>
<polygon fill="url(#SVGID_1_)" points="762.009,234.104 686.895,268.375 686.895,309.315 762.009,275.045 "/>
<g>
	<path fill="#FFFFFF" d="M820.896,221.087c0,3.151-1.336,5.712-4.007,7.681c-2.672,1.97-6.299,2.954-10.882,2.954
		c-2.65,0-4.96-0.233-6.929-0.698c-1.97-0.465-3.813-1.056-5.532-1.772v-7.67h0.902c1.704,1.361,3.612,2.406,5.726,3.137
		c2.112,0.73,4.143,1.096,6.091,1.096c0.501,0,1.16-0.043,1.977-0.129s1.482-0.229,1.998-0.43c0.63-0.258,1.149-0.58,1.558-0.967
		s0.612-0.959,0.612-1.719c0-0.701-0.298-1.307-0.892-1.815c-0.595-0.508-1.465-0.898-2.61-1.171
		c-1.203-0.286-2.475-0.555-3.813-0.806c-1.34-0.25-2.597-0.569-3.771-0.956c-2.693-0.873-4.63-2.059-5.812-3.556
		c-1.182-1.496-1.772-3.354-1.772-5.575c0-2.979,1.335-5.41,4.007-7.294c2.671-1.883,6.104-2.825,10.302-2.825
		c2.105,0,4.186,0.204,6.241,0.612c2.055,0.408,3.835,0.921,5.339,1.536v7.369h-0.881c-1.289-1.031-2.868-1.894-4.737-2.589
		c-1.869-0.694-3.778-1.042-5.726-1.042c-0.688,0-1.372,0.047-2.052,0.14c-0.681,0.094-1.336,0.269-1.966,0.526
		c-0.559,0.215-1.039,0.541-1.439,0.978c-0.401,0.438-0.602,0.935-0.602,1.493c0,0.846,0.322,1.493,0.967,1.944
		s1.861,0.863,3.652,1.235c1.174,0.244,2.302,0.48,3.384,0.709c1.081,0.229,2.245,0.545,3.491,0.945
		c2.449,0.803,4.257,1.895,5.425,3.276C820.312,217.088,820.896,218.882,820.896,221.087z"/>
	<path fill="#FFFFFF" d="M848.364,231.142h-23.139v-31.99h23.139v6.188h-14.932v5.521h13.857v6.188h-13.857v7.906h14.932V231.142z"
		/>
	<path fill="#FFFFFF" d="M887.5,231.142h-8.207v-21.42l-5.93,13.9h-5.693l-5.93-13.9v21.42h-7.777v-31.99h9.582l7.197,16.049
		l7.176-16.049h9.582V231.142z"/>
	<path fill="#FFFFFF" d="M927.881,231.142h-8.207v-21.42l-5.93,13.9h-5.693l-5.93-13.9v21.42h-7.777v-31.99h9.582l7.197,16.049
		l7.176-16.049h9.582V231.142z"/>
	<path fill="#FFFFFF" d="M810.233,269.142h-15.807v-23.992h15.807v2.836h-12.616v6.574h12.616v2.836h-12.616v8.91h12.616V269.142z"
		/>
	<path fill="#FFFFFF" d="M830.366,269.142h-3.029v-10.248c0-0.827-0.049-1.604-0.146-2.328c-0.097-0.726-0.274-1.292-0.532-1.7
		c-0.269-0.451-0.655-0.787-1.16-1.007c-0.505-0.221-1.16-0.33-1.965-0.33c-0.828,0-1.692,0.204-2.595,0.611
		c-0.902,0.409-1.768,0.93-2.595,1.563v13.438h-3.029v-17.998h3.029v1.998c0.945-0.784,1.923-1.396,2.934-1.838
		c1.009-0.439,2.046-0.66,3.109-0.66c1.944,0,3.427,0.586,4.447,1.756c1.021,1.172,1.531,2.858,1.531,5.061V269.142z"/>
	<path fill="#FFFFFF" d="M849.322,263.953c0,1.644-0.68,2.992-2.039,4.044c-1.358,1.054-3.215,1.58-5.566,1.58
		c-1.333,0-2.555-0.159-3.666-0.476c-1.112-0.317-2.044-0.663-2.796-1.04v-3.399h0.161c0.956,0.72,2.02,1.292,3.19,1.716
		c1.171,0.425,2.293,0.637,3.368,0.637c1.331,0,2.373-0.215,3.125-0.645s1.129-1.106,1.129-2.03c0-0.709-0.205-1.246-0.613-1.611
		s-1.191-0.677-2.352-0.935c-0.431-0.097-0.991-0.209-1.685-0.338c-0.692-0.129-1.324-0.269-1.894-0.42
		c-1.578-0.418-2.698-1.033-3.359-1.845c-0.66-0.811-0.99-1.807-0.99-2.989c0-0.74,0.152-1.438,0.459-2.094
		c0.306-0.655,0.771-1.241,1.394-1.757c0.602-0.505,1.367-0.905,2.296-1.2c0.93-0.296,1.969-0.443,3.118-0.443
		c1.074,0,2.162,0.132,3.263,0.395c1.102,0.264,2.017,0.583,2.748,0.959v3.238h-0.162c-0.773-0.568-1.713-1.05-2.819-1.441
		c-1.106-0.393-2.191-0.588-3.255-0.588c-1.106,0-2.041,0.212-2.804,0.636c-0.763,0.425-1.144,1.056-1.144,1.894
		c0,0.741,0.23,1.3,0.692,1.676c0.451,0.376,1.182,0.683,2.191,0.918c0.559,0.129,1.185,0.258,1.877,0.387
		c0.693,0.129,1.271,0.248,1.732,0.355c1.407,0.322,2.492,0.875,3.255,1.659C848.94,261.59,849.322,262.643,849.322,263.953z"/>
	<path fill="#FFFFFF" d="M868.986,260.456h-13.262c0,1.107,0.167,2.071,0.5,2.893c0.333,0.822,0.789,1.496,1.369,2.022
		c0.559,0.516,1.223,0.902,1.99,1.16c0.769,0.258,1.614,0.387,2.538,0.387c1.225,0,2.457-0.244,3.698-0.733
		c1.24-0.488,2.124-0.969,2.65-1.441h0.161v3.303c-1.021,0.43-2.063,0.789-3.126,1.08c-1.063,0.289-2.181,0.435-3.352,0.435
		c-2.986,0-5.317-0.809-6.993-2.425c-1.676-1.617-2.514-3.913-2.514-6.889c0-2.943,0.803-5.279,2.409-7.01
		c1.605-1.729,3.719-2.594,6.34-2.594c2.428,0,4.3,0.709,5.616,2.127c1.315,1.418,1.974,3.432,1.974,6.043V260.456z
		 M866.037,258.136c-0.011-1.589-0.41-2.819-1.2-3.689c-0.789-0.87-1.989-1.305-3.601-1.305c-1.623,0-2.914,0.478-3.876,1.434
		c-0.961,0.956-1.507,2.143-1.636,3.561H866.037z"/>
	<path fill="#FFFFFF" d="M877.098,248.13h-3.416v-3.143h3.416V248.13z M876.904,269.142h-3.029v-17.998h3.029V269.142z"/>
	<path fill="#FFFFFF" d="M897.762,267.095c0,3.051-0.693,5.291-2.079,6.72s-3.519,2.144-6.397,2.144
		c-0.956,0-1.888-0.067-2.795-0.202c-0.908-0.134-1.803-0.325-2.684-0.571v-3.094h0.162c0.493,0.193,1.277,0.432,2.352,0.717
		c1.074,0.284,2.148,0.427,3.223,0.427c1.031,0,1.886-0.124,2.563-0.37c0.677-0.248,1.203-0.592,1.579-1.031
		c0.376-0.42,0.645-0.925,0.806-1.516s0.242-1.251,0.242-1.981v-1.644c-0.914,0.73-1.786,1.275-2.619,1.636
		c-0.832,0.359-1.893,0.54-3.182,0.54c-2.149,0-3.854-0.776-5.116-2.329c-1.263-1.552-1.894-3.74-1.894-6.565
		c0-1.547,0.218-2.882,0.652-4.005c0.436-1.122,1.028-2.092,1.781-2.908c0.697-0.763,1.547-1.356,2.545-1.78
		c1-0.425,1.993-0.637,2.981-0.637c1.042,0,1.915,0.104,2.618,0.314c0.704,0.209,1.447,0.529,2.232,0.959l0.193-0.773h2.836V267.095
		z M894.732,264.194v-9.813c-0.807-0.365-1.556-0.626-2.248-0.781c-0.693-0.156-1.384-0.234-2.07-0.234
		c-1.666,0-2.977,0.56-3.932,1.676c-0.957,1.118-1.435,2.74-1.435,4.867c0,2.02,0.354,3.55,1.063,4.592s1.885,1.563,3.529,1.563
		c0.88,0,1.764-0.169,2.65-0.507C893.177,265.218,893.99,264.765,894.732,264.194z"/>
	<path fill="#FFFFFF" d="M919.037,269.142h-3.029v-10.248c0-0.827-0.049-1.604-0.146-2.328c-0.097-0.726-0.274-1.292-0.532-1.7
		c-0.269-0.451-0.655-0.787-1.16-1.007c-0.505-0.221-1.16-0.33-1.965-0.33c-0.828,0-1.692,0.204-2.595,0.611
		c-0.902,0.409-1.768,0.93-2.595,1.563v13.438h-3.029v-17.998h3.029v1.998c0.945-0.784,1.923-1.396,2.934-1.838
		c1.009-0.439,2.046-0.66,3.109-0.66c1.944,0,3.427,0.586,4.447,1.756c1.021,1.172,1.531,2.858,1.531,5.061V269.142z"/>
	<path fill="#FFFFFF" d="M940.199,260.456h-13.262c0,1.107,0.167,2.071,0.5,2.893c0.333,0.822,0.789,1.496,1.369,2.022
		c0.559,0.516,1.223,0.902,1.99,1.16c0.769,0.258,1.614,0.387,2.538,0.387c1.225,0,2.457-0.244,3.698-0.733
		c1.24-0.488,2.124-0.969,2.65-1.441h0.161v3.303c-1.021,0.43-2.063,0.789-3.126,1.08c-1.063,0.289-2.181,0.435-3.352,0.435
		c-2.986,0-5.317-0.809-6.993-2.425c-1.676-1.617-2.514-3.913-2.514-6.889c0-2.943,0.803-5.279,2.409-7.01
		c1.605-1.729,3.719-2.594,6.34-2.594c2.428,0,4.3,0.709,5.616,2.127c1.315,1.418,1.974,3.432,1.974,6.043V260.456z M937.25,258.136
		c-0.011-1.589-0.41-2.819-1.2-3.689c-0.789-0.87-1.989-1.305-3.601-1.305c-1.623,0-2.914,0.478-3.876,1.434
		c-0.961,0.956-1.507,2.143-1.636,3.561H937.25z"/>
	<path fill="#FFFFFF" d="M971.321,269.142h-3.029v-10.248c0-0.773-0.035-1.52-0.105-2.24c-0.069-0.719-0.217-1.294-0.443-1.724
		c-0.247-0.462-0.602-0.811-1.063-1.048c-0.463-0.235-1.129-0.354-1.998-0.354c-0.85,0-1.698,0.212-2.547,0.636
		c-0.849,0.425-1.697,0.965-2.545,1.62c0.031,0.247,0.059,0.534,0.08,0.861c0.021,0.328,0.032,0.652,0.032,0.975v11.521h-3.029
		v-10.248c0-0.795-0.035-1.55-0.104-2.264c-0.07-0.715-0.218-1.286-0.443-1.717c-0.247-0.461-0.602-0.808-1.063-1.039
		c-0.462-0.23-1.128-0.346-1.998-0.346c-0.827,0-1.657,0.204-2.489,0.611c-0.833,0.409-1.663,0.93-2.49,1.563v13.438h-3.029v-17.998
		h3.029v1.998c0.945-0.784,1.889-1.396,2.828-1.838c0.94-0.439,1.941-0.66,3.006-0.66c1.225,0,2.264,0.258,3.117,0.773
		c0.854,0.516,1.49,1.23,1.91,2.143c1.225-1.031,2.341-1.774,3.352-2.231c1.009-0.456,2.089-0.685,3.238-0.685
		c1.977,0,3.435,0.599,4.375,1.797c0.939,1.197,1.41,2.871,1.41,5.02V269.142z"/>
	<path fill="#FFFFFF" d="M992.483,260.456h-13.262c0,1.107,0.167,2.071,0.5,2.893c0.333,0.822,0.789,1.496,1.369,2.022
		c0.559,0.516,1.223,0.902,1.99,1.16c0.769,0.258,1.614,0.387,2.538,0.387c1.225,0,2.457-0.244,3.698-0.733
		c1.24-0.488,2.124-0.969,2.65-1.441h0.161v3.303c-1.021,0.43-2.063,0.789-3.126,1.08c-1.063,0.289-2.181,0.435-3.352,0.435
		c-2.986,0-5.317-0.809-6.993-2.425c-1.676-1.617-2.514-3.913-2.514-6.889c0-2.943,0.803-5.279,2.409-7.01
		c1.605-1.729,3.719-2.594,6.34-2.594c2.428,0,4.3,0.709,5.616,2.127c1.315,1.418,1.974,3.432,1.974,6.043V260.456z
		 M989.534,258.136c-0.011-1.589-0.41-2.819-1.2-3.689c-0.789-0.87-1.989-1.305-3.601-1.305c-1.623,0-2.914,0.478-3.876,1.434
		c-0.961,0.956-1.507,2.143-1.636,3.561H989.534z"/>
	<path fill="#FFFFFF" d="M1012.39,269.142h-3.029v-10.248c0-0.827-0.049-1.604-0.146-2.328c-0.097-0.726-0.274-1.292-0.532-1.7
		c-0.269-0.451-0.655-0.787-1.16-1.007c-0.505-0.221-1.16-0.33-1.965-0.33c-0.828,0-1.692,0.204-2.595,0.611
		c-0.902,0.409-1.768,0.93-2.595,1.563v13.438h-3.029v-17.998h3.029v1.998c0.945-0.784,1.923-1.396,2.934-1.838
		c1.009-0.439,2.046-0.66,3.109-0.66c1.944,0,3.427,0.586,4.447,1.756c1.021,1.172,1.531,2.858,1.531,5.061V269.142z"/>
	<path fill="#FFFFFF" d="M1027.832,268.98c-0.569,0.15-1.189,0.274-1.86,0.37c-0.672,0.098-1.271,0.146-1.797,0.146
		c-1.837,0-3.233-0.494-4.189-1.482s-1.435-2.572-1.435-4.753v-9.572h-2.046v-2.545h2.046v-5.173h3.029v5.173h6.252v2.545h-6.252
		v8.202c0,0.945,0.021,1.684,0.064,2.216c0.043,0.531,0.193,1.028,0.451,1.49c0.236,0.43,0.562,0.744,0.976,0.942
		c0.413,0.199,1.044,0.298,1.894,0.298c0.493,0,1.009-0.072,1.547-0.217c0.536-0.146,0.923-0.266,1.16-0.363h0.16V268.98z"/>
	<path fill="#FFFFFF" d="M809.251,298.456h-13.262c0,1.107,0.167,2.071,0.5,2.893c0.333,0.822,0.789,1.496,1.369,2.022
		c0.559,0.516,1.223,0.902,1.99,1.16c0.769,0.258,1.614,0.387,2.538,0.387c1.225,0,2.457-0.244,3.698-0.733
		c1.24-0.488,2.124-0.969,2.65-1.441h0.161v3.303c-1.021,0.43-2.063,0.789-3.126,1.08c-1.063,0.289-2.181,0.435-3.352,0.435
		c-2.986,0-5.317-0.809-6.993-2.425c-1.676-1.617-2.514-3.913-2.514-6.889c0-2.943,0.803-5.279,2.409-7.01
		c1.605-1.729,3.719-2.594,6.34-2.594c2.428,0,4.3,0.709,5.616,2.127c1.315,1.418,1.974,3.432,1.974,6.043V298.456z
		 M806.302,296.136c-0.011-1.589-0.41-2.819-1.2-3.689c-0.789-0.87-1.989-1.305-3.601-1.305c-1.623,0-2.914,0.478-3.876,1.434
		c-0.961,0.956-1.507,2.143-1.636,3.561H806.302z"/>
	<path fill="#FFFFFF" d="M823.452,306.98c-0.569,0.15-1.189,0.274-1.86,0.37c-0.672,0.098-1.271,0.146-1.797,0.146
		c-1.837,0-3.233-0.494-4.189-1.482s-1.435-2.572-1.435-4.753v-9.572h-2.046v-2.545h2.046v-5.173h3.029v5.173h6.252v2.545H817.2
		v8.202c0,0.945,0.021,1.684,0.064,2.216c0.043,0.531,0.193,1.028,0.451,1.49c0.236,0.43,0.562,0.744,0.976,0.942
		c0.413,0.199,1.044,0.298,1.894,0.298c0.493,0,1.009-0.072,1.547-0.217c0.536-0.146,0.923-0.266,1.16-0.363h0.16V306.98z"/>
	<path fill="#FFFFFF" d="M860.849,307.142h-3.19v-20.674l-6.671,14.067h-1.901l-6.623-14.067v20.674h-2.98v-23.992h4.351
		l6.397,13.357l6.188-13.357h4.431V307.142z"/>
	<path fill="#FFFFFF" d="M882.237,307.142h-3.029v-1.998c-1.021,0.806-1.998,1.424-2.934,1.854
		c-0.934,0.429-1.965,0.645-3.094,0.645c-1.891,0-3.362-0.578-4.414-1.732c-1.054-1.155-1.58-2.85-1.58-5.084v-11.682h3.029v10.248
		c0,0.913,0.043,1.694,0.129,2.344c0.086,0.65,0.269,1.206,0.549,1.668c0.289,0.473,0.665,0.816,1.127,1.031
		s1.134,0.322,2.015,0.322c0.784,0,1.641-0.204,2.57-0.612c0.929-0.408,1.796-0.929,2.603-1.563v-13.438h3.029V307.142z"/>
	<path fill="#FFFFFF" d="M891.525,307.142h-3.029v-25.072h3.029V307.142z"/>
	<path fill="#FFFFFF" d="M907.128,306.98c-0.569,0.15-1.189,0.274-1.86,0.37c-0.672,0.098-1.271,0.146-1.797,0.146
		c-1.837,0-3.233-0.494-4.189-1.482s-1.435-2.572-1.435-4.753v-9.572h-2.046v-2.545h2.046v-5.173h3.029v5.173h6.252v2.545h-6.252
		v8.202c0,0.945,0.021,1.684,0.064,2.216c0.043,0.531,0.193,1.028,0.451,1.49c0.236,0.43,0.562,0.744,0.976,0.942
		c0.413,0.199,1.044,0.298,1.894,0.298c0.493,0,1.009-0.072,1.547-0.217c0.536-0.146,0.923-0.266,1.16-0.363h0.16V306.98z"/>
	<path fill="#FFFFFF" d="M914.306,286.13h-3.416v-3.143h3.416V286.13z M914.112,307.142h-3.029v-17.998h3.029V307.142z"/>
	<path fill="#FFFFFF" d="M946.636,307.142h-3.029v-10.248c0-0.773-0.035-1.52-0.105-2.24c-0.069-0.719-0.217-1.294-0.443-1.724
		c-0.247-0.462-0.602-0.811-1.063-1.048c-0.463-0.235-1.129-0.354-1.998-0.354c-0.85,0-1.698,0.212-2.547,0.636
		c-0.849,0.425-1.697,0.965-2.545,1.62c0.031,0.247,0.059,0.534,0.08,0.861c0.021,0.328,0.032,0.652,0.032,0.975v11.521h-3.029
		v-10.248c0-0.795-0.035-1.55-0.104-2.264c-0.07-0.715-0.218-1.286-0.443-1.717c-0.247-0.461-0.602-0.808-1.063-1.039
		c-0.462-0.23-1.128-0.346-1.998-0.346c-0.827,0-1.657,0.204-2.489,0.611c-0.833,0.409-1.663,0.93-2.49,1.563v13.438h-3.029v-17.998
		h3.029v1.998c0.945-0.784,1.889-1.396,2.828-1.838c0.94-0.439,1.941-0.66,3.006-0.66c1.225,0,2.264,0.258,3.117,0.773
		c0.854,0.516,1.49,1.23,1.91,2.143c1.225-1.031,2.341-1.774,3.352-2.231c1.009-0.456,2.089-0.685,3.238-0.685
		c1.977,0,3.435,0.599,4.375,1.797c0.939,1.197,1.41,2.871,1.41,5.02V307.142z"/>
	<path fill="#FFFFFF" d="M967.798,298.456h-13.262c0,1.107,0.167,2.071,0.5,2.893c0.333,0.822,0.789,1.496,1.369,2.022
		c0.559,0.516,1.223,0.902,1.99,1.16c0.769,0.258,1.614,0.387,2.538,0.387c1.225,0,2.457-0.244,3.698-0.733
		c1.24-0.488,2.124-0.969,2.65-1.441h0.161v3.303c-1.021,0.43-2.063,0.789-3.126,1.08c-1.063,0.289-2.181,0.435-3.352,0.435
		c-2.986,0-5.317-0.809-6.993-2.425c-1.676-1.617-2.514-3.913-2.514-6.889c0-2.943,0.803-5.279,2.409-7.01
		c1.605-1.729,3.719-2.594,6.34-2.594c2.428,0,4.3,0.709,5.616,2.127c1.315,1.418,1.974,3.432,1.974,6.043V298.456z
		 M964.849,296.136c-0.011-1.589-0.41-2.819-1.2-3.689c-0.789-0.87-1.989-1.305-3.601-1.305c-1.623,0-2.914,0.478-3.876,1.434
		c-0.961,0.956-1.507,2.143-1.636,3.561H964.849z M965.22,280.136l-4.398,6.026h-2.401l2.884-6.026H965.22z"/>
	<path fill="#FFFFFF" d="M987.253,307.142h-3.029v-1.885c-0.871,0.752-1.778,1.337-2.724,1.756s-1.972,0.629-3.077,0.629
		c-2.149,0-3.854-0.827-5.116-2.482c-1.263-1.653-1.894-3.947-1.894-6.88c0-1.525,0.218-2.884,0.652-4.077
		c0.436-1.191,1.023-2.207,1.765-3.045c0.73-0.816,1.582-1.439,2.554-1.869c0.973-0.43,1.979-0.645,3.021-0.645
		c0.945,0,1.783,0.1,2.514,0.298c0.73,0.199,1.498,0.508,2.305,0.927v-7.799h3.029V307.142z M984.224,302.71v-10.328
		c-0.817-0.365-1.547-0.617-2.191-0.758c-0.645-0.139-1.349-0.209-2.111-0.209c-1.697,0-3.019,0.591-3.964,1.772
		s-1.418,2.857-1.418,5.027c0,2.138,0.365,3.763,1.096,4.874c0.73,1.112,1.901,1.668,3.513,1.668c0.859,0,1.729-0.19,2.61-0.572
		C982.639,303.804,983.46,303.313,984.224,302.71z"/>
	<path fill="#FFFFFF" d="M996.734,286.13h-3.416v-3.143h3.416V286.13z M996.541,307.142h-3.029v-17.998h3.029V307.142z"/>
	<path fill="#FFFFFF" d="M1016.784,307.142h-3.013v-1.918c-0.269,0.184-0.631,0.438-1.088,0.766
		c-0.456,0.328-0.899,0.588-1.329,0.781c-0.505,0.248-1.085,0.454-1.74,0.621c-0.655,0.166-1.424,0.25-2.305,0.25
		c-1.622,0-2.996-0.537-4.125-1.611c-1.127-1.074-1.691-2.444-1.691-4.109c0-1.364,0.293-2.468,0.878-3.312
		c0.586-0.843,1.421-1.507,2.506-1.989c1.096-0.484,2.411-0.812,3.948-0.983c1.535-0.172,3.185-0.301,4.946-0.387v-0.468
		c0-0.687-0.121-1.256-0.362-1.707c-0.242-0.451-0.588-0.807-1.039-1.064c-0.431-0.246-0.946-0.413-1.547-0.499
		c-0.603-0.086-1.23-0.129-1.886-0.129c-0.795,0-1.682,0.104-2.659,0.314c-0.978,0.209-1.987,0.513-3.029,0.91h-0.16v-3.077
		c0.59-0.162,1.444-0.339,2.562-0.532s2.218-0.29,3.304-0.29c1.267,0,2.371,0.104,3.311,0.314c0.94,0.209,1.754,0.566,2.441,1.071
		c0.677,0.494,1.192,1.134,1.547,1.917c0.354,0.785,0.531,1.757,0.531,2.917V307.142z M1013.771,302.71v-5.011
		c-0.924,0.054-2.012,0.135-3.263,0.241c-1.252,0.108-2.243,0.264-2.973,0.468c-0.871,0.247-1.574,0.631-2.111,1.152
		c-0.537,0.521-0.806,1.238-0.806,2.151c0,1.031,0.312,1.807,0.935,2.328c0.623,0.521,1.573,0.781,2.852,0.781
		c1.064,0,2.036-0.207,2.917-0.62C1012.203,303.787,1013.02,303.29,1013.771,302.71z"/>
</g>
</svg>
