<?xml version="1.0" encoding="utf-8"?>
<!-- Generator: Adobe Illustrator 15.0.0, SVG Export Plug-In . SVG Version: 6.00 Build 0)  -->
<!DOCTYPE svg PUBLIC "-//W3C//DTD SVG 1.1//EN" "http://www.w3.org/Graphics/SVG/1.1/DTD/svg11.dtd">
<svg version="1.1" id="Calque_1" xmlns="http://www.w3.org/2000/svg" xmlns:xlink="http://www.w3.org/1999/xlink" x="0px" y="0px"
	 width="16px" height="16px" viewBox="0 0 16 16" enable-background="new 0 0 16 16" xml:space="preserve">
<path fill-rule="evenodd" clip-rule="evenodd" fill="#FFFFFF" d="M1.208,0c4.542,0,9.084,0,13.625,0c0,5.257,0,10.514,0,15.77
	c-0.188,0.033-0.372-0.128-0.556-0.211c-0.555-0.248-1.203-0.514-1.746-0.794c-1.646,0.774-3.494,1.504-5.794,1.139
	c-2.884-0.461-4.957-2.353-5.45-5.24C1.111,9.64,1.18,8.478,1.18,7.197c0-2.352,0-4.794,0-7.118C1.178,0.043,1.177,0.005,1.208,0z
	 M4.964,3.096c0,2.68,0,5.364,0,8.044c1.018,0.456,2.012,0.934,3.043,1.376c0-3.166,0-6.333,0-9.499c-1.006,0-2.01,0-3.016,0
	C4.959,3.021,4.962,3.059,4.964,3.096z M11.897,9.553c-0.981,0.438-1.933,0.907-2.938,1.323c0,0.546,0,1.093,0,1.64
	c1.009-0.42,1.95-0.907,2.964-1.322C11.906,10.655,11.957,10.046,11.897,9.553z"/>
</svg>
